<?xml version="1.0" standalone="no"?>
<!DOCTYPE svg PUBLIC "-//W3C//DTD SVG 20010904//EN"
 "http://www.w3.org/TR/2001/REC-SVG-20010904/DTD/svg10.dtd">
<svg version="1.0" xmlns="http://www.w3.org/2000/svg"
 width="60px" height="60px" viewBox="0 0 570.000000 302.000000"
 preserveAspectRatio="xMidYMid meet">
<metadata>
Created by potrace 1.16, written by Peter Selinger 2001-2019
</metadata>
<g transform="translate(0.000000,302.000000) scale(0.100000,-0.100000)"
fill="#000000" stroke="none">
<path d="M2625 2360 c-121 -225 -222 -410 -225 -410 -3 0 -67 123 -142 274
-75 151 -151 290 -168 309 -16 19 -49 43 -73 53 -40 18 -91 19 -944 22 -565 1
-903 -1 -903 -7 0 -15 114 -181 160 -234 23 -26 63 -60 88 -75 l47 -27 635 0
635 0 45 -25 c60 -34 86 -75 280 -445 257 -488 280 -529 295 -513 7 7 110 175
230 373 120 198 229 377 242 398 l24 38 247 -410 c136 -226 249 -411 252 -411
4 0 107 192 231 426 123 234 238 446 255 472 20 31 47 55 80 72 l49 25 635 1
c626 0 636 1 675 21 58 31 136 115 200 218 l56 90 -538 8 c-296 4 -698 6 -893
5 -346 -3 -356 -4 -397 -25 -89 -48 -138 -119 -309 -448 -53 -103 -97 -185
-99 -183 -1 2 -37 71 -80 153 -153 295 -358 665 -368 665 -1 0 -101 -184 -222
-410z"/>
<path d="M708 2100 l-257 -5 47 -78 c69 -114 135 -192 189 -224 l48 -28 578
-3 c317 -2 577 0 577 3 0 15 -106 215 -132 247 -55 70 -83 80 -246 89 -154 8
-374 8 -804 -1z"/>
<path d="M4160 2102 c-142 -8 -174 -21 -232 -95 -42 -52 -129 -229 -119 -240
5 -4 264 -7 577 -5 l569 3 47 27 c25 15 68 56 96 90 53 67 132 192 132 208 0
6 -56 10 -143 10 -79 0 -292 2 -473 4 -181 2 -385 1 -454 -2z"/>
<path d="M2600 1358 c-133 -222 -245 -407 -249 -411 -5 -4 -66 97 -136 225
-227 412 -214 396 -329 417 -63 12 -1046 16 -1046 5 0 -4 21 -42 47 -87 59
-98 171 -222 216 -236 21 -7 131 -10 307 -9 l275 3 50 -25 c79 -39 115 -94
420 -645 97 -176 180 -323 184 -328 4 -4 119 180 256 408 136 229 252 414 256
413 9 -3 59 -87 344 -572 83 -140 152 -255 155 -255 3 -1 61 102 129 227 182
333 294 527 364 633 52 79 70 98 112 119 49 24 54 25 220 20 320 -8 375 -6
421 18 52 27 143 125 210 227 l52 80 -66 5 c-37 3 -278 6 -537 5 -464 0 -471
0 -511 -22 -22 -12 -52 -37 -66 -55 -13 -18 -91 -156 -173 -306 -118 -218
-150 -271 -160 -260 -6 7 -119 189 -249 403 -131 215 -241 394 -246 398 -4 5
-116 -173 -250 -395z"/>
</g>
</svg>
